<?xml version="1.0" standalone="no"?>
<!DOCTYPE svg PUBLIC "-//W3C//DTD SVG 20010904//EN"
 "http://www.w3.org/TR/2001/REC-SVG-20010904/DTD/svg10.dtd">
<svg version="1.0" xmlns="http://www.w3.org/2000/svg"
 width="792.000000pt" height="612.000000pt" viewBox="0 0 792.000000 612.000000"
 preserveAspectRatio="xMidYMid meet">

<g transform="translate(0.000000,612.000000) scale(0.100000,-0.100000)"
fill="#000000" stroke="none">
<path d="M3462 4129 c-48 -14 -86 -60 -168 -201 -69 -121 -80 -154 -34 -108
14 14 33 20 68 20 l47 0 1 41 c3 84 105 138 168 88 33 -26 59 -82 51 -110 -6
-17 -1 -19 38 -19 30 0 49 -6 61 -19 10 -10 38 -24 63 -30 70 -18 114 -44 166
-100 l48 -51 135 0 c126 0 136 1 129 18 -11 29 -216 385 -243 421 -41 56 -67
61 -294 60 -112 0 -218 -5 -236 -10z"/>
<path d="M3459 3926 c-29 -14 -38 -66 -15 -86 9 -7 16 -21 16 -31 0 -17 -8
-19 -80 -19 -77 0 -81 -1 -90 -25 -8 -21 -16 -25 -50 -25 -22 0 -55 -6 -74
-14 -37 -15 -102 -69 -117 -97 -9 -18 4 -19 432 -19 l442 0 -25 33 c-44 56
-101 90 -163 95 -48 4 -58 8 -65 28 -9 22 -15 24 -85 24 -67 0 -75 2 -75 19 0
10 7 24 15 31 18 15 20 64 3 77 -24 18 -45 21 -69 9z"/>
<path d="M3257 3502 c-30 -33 -21 -42 43 -42 65 0 76 12 42 43 -24 22 -65 21
-85 -1z"/>
<path d="M3625 3510 c-4 -6 10 -10 35 -10 25 0 39 4 35 10 -3 6 -19 10 -35 10
-16 0 -32 -4 -35 -10z"/>
<path d="M2931 3289 c-22 -39 -31 -124 -16 -149 4 -6 56 -10 123 -10 l116 0
-45 28 c-51 33 -104 90 -127 138 -8 19 -19 34 -22 34 -3 0 -17 -18 -29 -41z"/>
<path d="M3885 3184 c-40 -32 -121 -64 -160 -64 -39 0 -47 -7 -235 -195 l-195
-196 182 3 181 3 37 30 c25 20 73 93 150 227 62 108 111 199 107 202 -10 11
-47 5 -67 -10z"/>
<path d="M3440 2168 c0 -24 -3 -73 -7 -110 l-6 -68 52 0 51 0 0 110 0 110 -45
0 -45 0 0 -42z"/>
<path d="M3610 2100 l0 -110 51 0 52 0 -6 68 c-4 37 -7 86 -7 110 l0 42 -45 0
-45 0 0 -110z"/>
<path d="M3720 2204 c0 -3 32 -52 72 -110 70 -101 73 -104 110 -104 l38 0 0
110 0 110 -45 0 c-35 0 -45 -4 -45 -17 0 -15 -1 -15 -18 0 -17 16 -112 25
-112 11z"/>
<path d="M4020 2100 l0 -110 45 0 45 0 0 75 0 75 80 0 80 0 0 35 0 35 -125 0
-125 0 0 -110z"/>
<path d="M4331 2125 c-51 -142 -52 -135 7 -135 47 0 51 2 61 30 10 30 10 30
90 30 l79 0 7 -30 c6 -29 9 -30 61 -30 l53 0 -37 108 -38 107 -46 3 -47 3 6
-35 6 -36 -48 0 -47 0 6 35 7 35 -45 0 -44 0 -31 -85z"/>
<path d="M4740 2168 c0 -24 -3 -73 -7 -110 l-6 -68 52 0 51 0 0 110 0 110 -45
0 -45 0 0 -42z"/>
<path d="M4881 2151 c18 -33 40 -69 49 -81 17 -22 17 -22 45 26 15 27 36 64
47 82 l20 32 -97 0 -96 0 32 -59z"/>
<path d="M5060 2100 l0 -110 45 0 45 0 0 110 0 110 -45 0 -45 0 0 -110z"/>
<path d="M5220 2175 c0 -69 59 -149 132 -179 135 -57 298 48 298 192 0 19 -5
22 -42 22 -42 0 -43 -1 -58 -47 -20 -63 -56 -88 -122 -87 -45 0 -55 5 -84 37
-23 25 -34 47 -34 67 0 29 -2 30 -45 30 -45 0 -45 0 -45 -35z"/>
<path d="M5710 2144 c0 -82 19 -117 78 -145 33 -16 56 -20 98 -17 95 8 144 66
144 171 l0 57 -44 0 -44 0 -4 -55 c-5 -65 -12 -74 -60 -81 -52 -9 -78 20 -78
86 l0 50 -45 0 -45 0 0 -66z"/>
<path d="M6154 2195 c10 -8 48 -24 83 -36 76 -25 96 -50 58 -75 -34 -22 -90
-11 -111 21 l-16 25 -39 -22 c-45 -25 -46 -30 -19 -68 61 -86 248 -75 286 16
20 47 11 98 -21 130 -22 22 -31 24 -132 24 -96 -1 -106 -2 -89 -15z"/>
</g>
</svg>
